 
<svg  xmlns="http://www.w3.org/2000/svg" width="113px" height="28px" viewBox="0 0 226.77 56.69" >
<path fill="#EA6E1D" d="M70.542,27.209c0.13-0.864-0.014-1.536-0.449-2.029c-0.432-0.5-1.093-0.761-1.967-0.774
	c-1.172-0.014-2.07,0.336-2.694,1.076c-0.627,0.727-1.059,1.968-1.323,3.729l-0.956,6.424c-0.247,1.673-0.161,2.865,0.243,3.578
	c0.425,0.706,1.217,1.069,2.413,1.083c0.946,0.021,1.714-0.232,2.317-0.761c0.613-0.527,0.984-1.261,1.127-2.228
	c0.007-0.056,0.014-0.158,0.014-0.288c0-0.131,0.011-0.233,0.024-0.309l6.399,0.109l-0.113,0.789
	c-0.408,2.77-1.525,4.813-3.352,6.149c-1.824,1.329-4.354,1.967-7.613,1.905c-3.523-0.055-6.012-0.912-7.441-2.577
	c-1.443-1.666-1.913-4.189-1.402-7.575l1.015-6.856c0.477-3.161,1.707-5.553,3.729-7.191c2.009-1.652,4.675-2.441,8-2.386
	c2.934,0.062,5.104,0.761,6.53,2.105c1.426,1.351,1.954,3.215,1.607,5.594l-0.085,0.535L70.542,27.209z"/>
<path fill="#EA6E1D" d="M97.498,44.499c-1.697,0.589-3.301,1.021-4.823,1.302c-1.511,0.274-2.968,0.405-4.353,0.385
	c-3.558-0.063-6.156-1.001-7.768-2.825c-1.607-1.816-2.173-4.415-1.669-7.795l0.881-5.984c0.504-3.332,1.734-5.861,3.709-7.603
	c1.974-1.727,4.583-2.571,7.815-2.509c3.027,0.041,5.282,0.912,6.776,2.571c1.498,1.673,2.033,3.928,1.608,6.787l-0.819,5.498
	l-12.943-0.227l-0.319,2.152c-0.216,1.468,0.096,2.599,0.939,3.422c0.847,0.815,2.139,1.247,3.884,1.281
	c0.926,0.014,1.978-0.116,3.126-0.377c1.155-0.261,2.43-0.686,3.822-1.24L97.498,44.499z M86.471,30.335l6.808,0.124l0.326-2.208
	c0.212-1.426,0.082-2.509-0.381-3.243c-0.462-0.733-1.258-1.104-2.389-1.124c-1.045-0.014-1.937,0.343-2.643,1.063
	c-0.72,0.727-1.176,1.734-1.357,3.023L86.471,30.335z"/>
<path fill="#EA6E1D" d="M101.539,45.801l3.774-25.454l6.667,0.117l-0.81,5.512c1.502-1.954,3.027-3.421,4.59-4.408
	c1.553-0.98,3.157-1.501,4.803-1.556l-1.293,8.727c-1.826,0.062-3.414,0.274-4.747,0.631c-1.337,0.363-2.516,0.904-3.523,1.631
	l-2.211,14.925L101.539,45.801z"/>
<path fill="#EA6E1D" d="M132.266,35.84c-0.318,2.132-0.229,3.559,0.277,4.271c0.497,0.727,1.581,1.097,3.239,1.131
	c0.097,0,0.254-0.007,0.48-0.014c0.229-0.014,0.397-0.021,0.518-0.021l-0.83,5.608c-0.384,0.04-0.795,0.061-1.237,0.074
	c-0.432,0-1.042,0-1.83-0.014c-3.511-0.061-5.879-0.732-7.103-2.028c-1.228-1.289-1.614-3.517-1.139-6.685l1.875-12.6l-4.119-0.069
	l0.723-4.84l4.11,0.075l1.36-9.138l7.257,0.117l-1.364,9.152l5.104,0.082l-0.716,4.833l-5.098-0.083L132.266,35.84z"/>
<path d="M160.729,33.88c-0.613,3.812-1.93,6.841-3.952,9.076c-2.029,2.235-4.318,3.346-6.855,3.312
	c-1.032-0.014-1.937-0.151-2.694-0.418c-0.744-0.268-1.501-0.686-2.248-1.241l-1.525,9.502l-3.534-0.041l5.011-31.213l3.534,0.034
	l-0.384,2.386c1.021-0.857,2.104-1.549,3.26-2.132c1.165-0.562,2.369-0.843,3.631-0.823c2.389,0.028,4.089,1.09,5.097,3.174
	C161.075,27.593,161.295,30.383,160.729,33.88z M157.014,34.263c0.425-2.611,0.363-4.634-0.157-6.094
	c-0.535-1.447-1.646-2.187-3.353-2.208c-0.998-0.014-1.991,0.226-2.992,0.692c-1.005,0.48-1.984,1.097-2.941,1.858l-2.088,12.964
	c0.837,0.507,1.574,0.85,2.19,1.035c0.631,0.178,1.365,0.274,2.218,0.281c1.811,0.027,3.339-0.686,4.59-2.14
	C155.711,39.213,156.564,37.067,157.014,34.263z"/>
<path d="M171.545,19.366l-4.008-0.048l0.638-3.99l4.014,0.048L171.545,19.366z M167.037,45.932l-3.527-0.034l3.668-22.788
	l3.523,0.034L167.037,45.932z"/>
<path d="M185.2,43.724c-0.325,0.22-0.758,0.549-1.306,0.96c-0.545,0.404-1.063,0.727-1.55,0.967c-0.679,0.35-1.33,0.61-1.93,0.795
	c-0.613,0.186-1.439,0.281-2.488,0.261c-0.857-0.007-1.635-0.198-2.358-0.562c-0.709-0.364-1.31-0.864-1.796-1.509
	c-0.463-0.638-0.781-1.426-0.971-2.345c-0.191-0.926-0.202-1.899-0.037-2.927c0.254-1.577,0.771-2.921,1.573-4.024
	c0.788-1.11,1.885-1.981,3.312-2.619c1.262-0.569,2.718-0.96,4.339-1.172c1.632-0.199,3.38-0.35,5.231-0.432l0.123-0.748
	c0.154-0.912,0.141-1.645-0.021-2.207c-0.154-0.555-0.438-0.994-0.843-1.303c-0.388-0.322-0.909-0.542-1.539-0.651
	c-0.638-0.116-1.289-0.165-1.975-0.178c-0.813-0.014-1.786,0.124-2.935,0.384c-1.145,0.267-2.307,0.658-3.489,1.172h-0.195
	l0.631-3.915c0.672-0.199,1.645-0.411,2.896-0.645c1.251-0.233,2.464-0.335,3.65-0.329c1.446,0.014,2.636,0.158,3.582,0.411
	c0.942,0.253,1.772,0.706,2.447,1.357c0.672,0.638,1.104,1.454,1.316,2.454c0.22,1.001,0.209,2.215-0.017,3.641l-2.517,15.61
	l-3.521-0.035L185.2,43.724z M185.704,40.543l1.008-6.3c-0.84,0.082-1.909,0.178-3.201,0.302c-1.292,0.13-2.352,0.315-3.174,0.562
	c-0.98,0.302-1.834,0.781-2.544,1.405c-0.71,0.638-1.155,1.536-1.34,2.694c-0.209,1.303-0.038,2.29,0.527,2.962
	s1.498,1.008,2.784,1.021c1.1,0.014,2.145-0.233,3.115-0.747C183.863,41.928,184.803,41.297,185.704,40.543z"/>
<path fill="#DD411B" d="M46.911,41.9c0,4.113-3.342,7.432-7.442,7.432H13.943c-4.113,0-7.435-3.318-7.435-7.432V12.709
	c0-4.113,3.322-7.445,7.435-7.445h25.526c4.1,0,7.442,3.332,7.442,7.445V41.9z"/>
<path fill="#EA6E1D" d="M47.165,42.291c0,3.895-3.164,7.041-7.044,7.041H15.914c-3.894,0-7.044-3.146-7.044-7.041V14.629
	c0-3.887,3.15-7.04,7.044-7.04h24.207c3.88,0,7.044,3.153,7.044,7.04V42.291z"/>
<path fill="#FFFFFF" d="M6.511,40.091c0,0,19.415-5.539,19.014-20.772l21.369,8.083c0,0,0.922,13.41-17.92,21.945H13.271
	C13.271,49.346,5.62,48.831,6.511,40.091z M26.845,23.191c0,0-0.326,3.86-2.393,5.581l3.884,1.728c0,0,2.77-2.222,2.526-5.821
	L26.845,23.191z"/>
</svg>
